{"title":"Sherlock - Season 2 (2011) 720p MKV x264 AC3 BRrip [Pioneer]","uid":8350715,"size":6904912494,"categoryP":"video","categoryS":"hd___tv_shows","magnet":"?xt=urn:btih:b52f48cb2e103d3b3db0f48a77225f4ed195e71d&amp;dn=Sherlock+-+Season+2+%282011%29+720p+MKV+x264+AC3+BRrip+%5BPioneer%5D&amp;tr=udp%3A%2F%2Ftracker.openbittorrent.com%3A80&amp;tr=udp%3A%2F%2Fopen.demonii.com%3A1337&amp;tr=udp%3A%2F%2Ftracker.coppersurfer.tk%3A6969&amp;tr=udp%3A%2F%2Fexodus.desync.com%3A6969","seeders":36,"leechers":7,"uploader":"Pioneer47","files":-1,"time":1365293918,"description":"[IMG]http://stpicz.com/2549_sherlock_season_2_cover_qfog.jpg[/IMG]\n\n\nThree-part BBC mini-series of the BBC's fast-paced modernised crime drama based on the characters created by Arthur Conan Doyle. Laptops, mobile phones and the internet are the new tools for crime in a modern London under threat from serial killers, bombings and gang warfare. Sherlock Holmes (Benedict Cumberbatch), the most brilliant intellect of his generation, has a unique analytical brain unlike anyone else's, and staves off the ever-present threat of boredom by solving crimes, the more intricate and baffling the better. Meanwhile, his friend and flatmate, John Watson (Martin Freeman), is an army doctor invalided home from the battlefields of Afghanistan. Episodes comprise: 'A Scandal in Belgravia', 'The Hounds of Baskerville' and 'The Reichenbach Fall'.\n\nStarring: Benedict Cumberbatch, Martin Freeman\nDirectors: Steven Moffat, Mark Gatiss, Steve Thompson\n\n &lt;a href=&quot;\nhttp://www.imdb.com/title/tt1475582/&quot; rel=&quot;nofollow&quot; target=&quot;_NEW&quot;&gt;\nhttp://www.imdb.com/title/tt1475582/&lt;/a&gt;\n\n\n &lt;a href=&quot;\nhttp://stpicz.com/9953_vlcsnap_2013_04_07_10h21m36s5_o4jl.png&quot; rel=&quot;nofollow&quot; target=&quot;_NEW&quot;&gt;\nhttp://stpicz.com/9953_vlcsnap_2013_04_07_10h21m36s5_o4jl.png&lt;/a&gt; &lt;a href=&quot;\nhttp://stpicz.com/7176_vlcsnap_2013_04_07_10h12m07s199_7p7z.png&quot; rel=&quot;nofollow&quot; target=&quot;_NEW&quot;&gt;\nhttp://stpicz.com/7176_vlcsnap_2013_04_07_10h12m07s199_7p7z.png&lt;/a&gt; &lt;a href=&quot;\nhttp://stpicz.com/6169_vlcsnap_2013_04_07_10h10m40s60_jd2u.png&quot; rel=&quot;nofollow&quot; target=&quot;_NEW&quot;&gt;\nhttp://stpicz.com/6169_vlcsnap_2013_04_07_10h10m40s60_jd2u.png&lt;/a&gt; &lt;a href=&quot;\nhttp://stpicz.com/6600_vlcsnap_2013_04_07_10h07m19s125_fn1f.png&quot; rel=&quot;nofollow&quot; target=&quot;_NEW&quot;&gt;\nhttp://stpicz.com/6600_vlcsnap_2013_04_07_10h07m19s125_fn1f.png&lt;/a&gt; &lt;a href=&quot;\nhttp://stpicz.com/9735_vlcsnap_2013_04_07_09h53m40s114_fbgi.png&quot; rel=&quot;nofollow&quot; target=&quot;_NEW&quot;&gt;\nhttp://stpicz.com/9735_vlcsnap_2013_04_07_09h53m40s114_fbgi.png&lt;/a&gt; &lt;a href=&quot;\nhttp://stpicz.com/3092_vlcsnap_2013_04_07_09h56m26s243_d94i.png&quot; rel=&quot;nofollow&quot; target=&quot;_NEW&quot;&gt;\nhttp://stpicz.com/3092_vlcsnap_2013_04_07_09h56m26s243_d94i.png&lt;/a&gt; &lt;a href=&quot;\nhttp://stpicz.com/5518_vlcsnap_2013_04_07_10h03m00s98_8txu.png&quot; rel=&quot;nofollow&quot; target=&quot;_NEW&quot;&gt;\nhttp://stpicz.com/5518_vlcsnap_2013_04_07_10h03m00s98_8txu.png&lt;/a&gt;\n\n\nGeneral\nUnique ID: 281959922896717543164252388394550008252 (0xD41F81803297454D65A8971B390599BC)\nComplete name: E:Sherlock (2011) S2E02 (The Hounds Of The Baskerville) 720p MKV x264 AC3 BRrip [Pioneer].mkv\nFormat : Matroska\nFormat version: Version 2\nFile size: 2.59 GiB\nDuration: 1h 28mn\nOverall bit rate: 4 200 Kbps\nWriting application: HandBrake 0.9.8\nWriting library: libmkv 0.6.5\n\nVideo\nID: 1\nFormat: AVC\nFormat/Info: Advanced Video Codec\nFormat profile: &lt;a class=&quot;__cf_email__&quot; href=&quot;/cdn-cgi/l/email-protection&quot; data-cfemail=&quot;460e2f212e060a726876&quot;&gt;[email&amp;#160;protected]&lt;/a&gt;&lt;script cf-hash='f9e31' type=&quot;text/javascript&quot;&gt;\n/* &lt;![CDATA[ */!function(){try{var t=&quot;currentScript&quot;in document?document.currentScript:function(){for(var t=document.getElementsByTagName(&quot;script&quot;),e=t.length;e--;)if(t[e].getAttribute(&quot;cf-hash&quot;))return t[e]}();if(t&amp;&amp;t.previousSibling){var e,r,n,i,c=t.previousSibling,a=c.getAttribute(&quot;data-cfemail&quot;);if(a){for(e=&quot;&quot;,r=parseInt(a.substr(0,2),16),n=2;a.length-n;n+=2)i=parseInt(a.substr(n,2),16)^r,e+=String.fromCharCode(i);e=document.createTextNode(e),c.parentNode.replaceChild(e,c)}}}catch(u){}}();/* ]]&gt; */&lt;/script&gt;\nFormat settings, CABAC: Yes\nFormat settings, ReFrames: 5 frames\nCodec ID: V_MPEG4/ISO/AVC\nDuration: 1h 28mn\nBit rate: 3 668 Kbps\nWidth: 1 280 pixels\nHeight: 720 pixels\nDisplay aspect ratio: 16:9\nFrame rate mode: Constant\nFrame rate: 25.000 fps\nColor space: YUV\nChroma subsampling: 4:2:0\nBit depth: 8 bits\nScan type: Progressive\nBits/(Pixel*Frame): 0.159\nStream size: 2.26 GiB (87%)\nWriting library: x264 core 120\nLanguage: English\nDefault: Yes\nForced : No\nColor primaries: BT.709\nTransfer characteristics: BT.709\nMatrix coefficients: BT.709\n\nAudio\nID: 2\nFormat: AC-3\nFormat/Info: Audio Coding 3\nMode extension: CM (complete main)\nFormat settings, Endianness: Big\nCodec ID: A_AC3\nDuration: 1h 28mn\nBit rate mode: Constant\nBit rate: 448 Kbps\nChannel(s): 6 channels\nChannel positions: Front: L C R, Side: L R, LFE\nSampling rate: 48.0 KHz\nBit depth: 16 bits\nCompression mode: Lossy\nStream size: 283 MiB (11%)\nDefault: Yes\nForced: No","torrent":{"xt":"urn:btih:b52f48cb2e103d3b3db0f48a77225f4ed195e71d","amp;dn":"Sherlock+-+Season+2+%282011%29+720p+MKV+x264+AC3+BRrip+%5BPioneer%5D","amp;tr":["udp%3A%2F%2Ftracker.openbittorrent.com%3A80","udp%3A%2F%2Fopen.demonii.com%3A1337","udp%3A%2F%2Ftracker.coppersurfer.tk%3A6969","udp%3A%2F%2Fexodus.desync.com%3A6969"],"infoHash":"b52f48cb2e103d3b3db0f48a77225f4ed195e71d","infoHashBuffer":{"type":"Buffer","data":[181,47,72,203,46,16,61,59,61,176,244,138,119,34,95,78,209,149,231,29]},"announce":[],"urlList":[]}}